<svg width="105" height="24" viewBox="0 0 105 24" fill="none" xmlns="http://www.w3.org/2000/svg">
<g clip-path="url(#clip0_2245_1040)">
<path d="M78.2471 1.3092V4.81715H69.2128V10.3744H76.1362V13.8207H69.2128V22.9783H64.8676V1.3092H78.2471Z" fill="#C90C2B"/>
<path d="M103.394 1.3092V22.9783H99.0487V8.87978L93.2449 22.9732H89.9527L84.1181 8.87978V22.9732H79.773V1.3092H84.7088L91.6014 17.4211L98.4888 1.3092H103.394Z" fill="#C90C2B"/>
<path d="M0.959869 1.36059H4.88383V13.8464L10.6619 7.40062H15.5926L8.85402 14.8942L16.3989 23.04H11.5299L4.88897 15.8341V23.04H0.959869V1.36059Z" fill="#444444"/>
<path d="M17.8727 1.36059H21.7967V23.0348H17.8727V1.36059Z" fill="#444444"/>
<path d="M25.2227 7.40054H29.1467V23.0399H25.2227V7.40054Z" fill="#444444"/>
<path d="M33.0346 1.36059H36.9586V13.8464L42.7367 7.40062H47.6673L40.9288 14.8942L48.4737 23.04H43.6047L36.9637 15.8341V23.04H33.0397V1.36059H33.0346Z" fill="#444444"/>
<path d="M53.0547 11.9973V7.40054H56.121V11.9973H60.7075V15.0636H56.121V19.6501H53.0547V15.0636H48.4682V11.9973H53.0547Z" fill="#444444"/>
<path d="M27.2359 0.959999C27.9242 0.959999 28.5148 1.21167 29.0079 1.70987C29.5009 2.20807 29.7475 2.81412 29.7475 3.5229C29.7475 4.23168 29.5061 4.81719 29.0181 5.31026C28.5302 5.80332 27.9498 6.04985 27.2719 6.04985C26.5939 6.04985 25.9776 5.79818 25.4845 5.29485C24.9914 4.79151 24.7449 4.18032 24.7449 3.46127C24.7449 2.74222 24.9863 2.18239 25.4742 1.69446C25.9622 1.20653 26.5477 0.959999 27.2359 0.959999Z" fill="#C90C2B"/>
</g>
<defs>
<clipPath id="clip0_2245_1040">
<rect width="102.434" height="22.08" fill="white" transform="translate(0.959991 0.959999)"/>
</clipPath>
</defs>
</svg>
