<svg width="120" height="40" viewBox="0 0 120 40" fill="none" xmlns="http://www.w3.org/2000/svg">
<g clip-path="url(#clip0_2301_1607)">
<rect x="4" y="9" width="112" height="30" fill="white"/>
<path d="M36.67 20.32C34.81 20.32 33.67 21.32 33.67 23.07H39.58C39.5187 22.3337 39.1878 21.646 38.6509 21.1385C38.1139 20.6311 37.4085 20.3396 36.67 20.32Z" fill="#7F7F7E"/>
<path d="M0 7.38V40.13H120V7.38H0ZM13.38 32.9H7.24V11.14H13.38V32.9ZM20.66 32.84L13.51 20.91L21 11H28L20.52 21.07L27.76 32.84H20.66ZM45.81 26.39H33.67V26.44C33.6726 26.8458 33.7551 27.2471 33.9128 27.621C34.0706 27.9949 34.3004 28.334 34.5892 28.6191C34.878 28.9042 35.2201 29.1296 35.596 29.2825C35.9719 29.4353 36.3742 29.5126 36.78 29.51C37.2703 29.5426 37.7592 29.4289 38.1847 29.1832C38.6102 28.9375 38.9531 28.5709 39.17 28.13H45.26C44.11 32.03 40.13 33.4 36.37 33.4C31.26 33.4 27.26 30.24 27.26 25.02C27.26 19.8 31.26 16.41 36.37 16.41C42.28 16.41 45.9 20.53 45.76 26.3H45.81V26.39ZM57.76 33.39C56.9636 33.409 56.1742 33.2373 55.4576 32.8895C54.7409 32.5416 54.1177 32.0275 53.64 31.39V38.39H47.27V16.91C47.27 16.91 53.18 16.91 53.13 16.96V19.33C53.5986 18.4196 54.3191 17.6632 55.2056 17.1508C56.0921 16.6384 57.1072 16.3917 58.13 16.44C62.9 16.44 65.28 20.44 65.28 24.82C65.28 31.19 61.38 33.44 57.76 33.44V33.39ZM77.28 33.39C76.4836 33.409 75.6942 33.2373 74.9776 32.8895C74.2609 32.5416 73.6378 32.0275 73.16 31.39V38.39H66.79V16.91C66.79 16.91 72.65 16.91 72.65 16.96V19.33C73.1186 18.4196 73.8391 17.6632 74.7256 17.1508C75.6121 16.6384 76.6272 16.3917 77.65 16.44C82.41 16.44 84.79 20.44 84.79 24.82C84.79 31.19 80.9 33.44 77.28 33.44V33.39ZM104.44 26.39H92.3C92.3026 26.7971 92.3854 27.1997 92.5436 27.5748C92.7018 27.9499 92.9324 28.2902 93.2221 28.5762C93.5118 28.8622 93.855 29.0883 94.2321 29.2417C94.6093 29.3951 95.0129 29.4726 95.42 29.47C95.9095 29.506 96.3984 29.3936 96.823 29.1474C97.2476 28.9012 97.5881 28.5327 97.8 28.09H103.94C102.79 31.99 98.81 33.36 95.05 33.36C89.94 33.36 85.94 30.2 85.94 24.98C85.94 19.76 89.94 16.37 95.05 16.37C100.96 16.37 104.58 20.49 104.44 26.26V26.39ZM112.69 32.91H106.32V10.91H112.69V32.91Z" fill="#7F7F7E"/>
<path d="M56 21.17C54.39 21.17 53.39 22.55 53.39 24.79C53.39 27.03 54.39 28.54 56 28.54C57.61 28.54 58.75 27.03 58.75 24.93C58.75 22.41 57.61 21.17 56 21.17Z" fill="#7F7F7E"/>
<path d="M75.68 21.17C74.06 21.17 73.06 22.55 73.06 24.79C73.06 27.03 74.06 28.54 75.68 28.54C77.3 28.54 78.42 27.03 78.42 24.93C78.42 22.41 77.3 21.17 75.68 21.17Z" fill="#7F7F7E"/>
<path d="M95.3 20.32C93.45 20.32 92.3 21.32 92.3 23.07H98.21C98.1487 22.3337 97.8178 21.646 97.2809 21.1385C96.7439 20.6311 96.0385 20.3396 95.3 20.32Z" fill="#7F7F7E"/>
<path d="M28 11L36.39 0H43.26L35 11H28Z" fill="#C8102E"/>
</g>
<defs>
<clipPath id="clip0_2301_1607">
<rect width="120" height="40" fill="white"/>
</clipPath>
</defs>
</svg>
